<mxfile host="Electron" modified="2023-10-16T13:01:00.690Z" agent="Mozilla/5.0 (Windows NT 10.0; Win64; x64) AppleWebKit/537.36 (KHTML, like Gecko) draw.io/21.6.8 Chrome/114.0.5735.289 Electron/25.5.0 Safari/537.36" etag="6GGo4t8spk6m3gYPKxvn" version="21.6.8" type="device">
  <diagram name="ページ1" id="BDAOcWgW91cvHiB04QAj">
    <mxGraphModel dx="1239" dy="845" grid="1" gridSize="10" guides="1" tooltips="1" connect="1" arrows="1" fold="1" page="1" pageScale="1" pageWidth="827" pageHeight="1169" background="none" math="0" shadow="0">
      <root>
        <mxCell id="0" />
        <mxCell id="1" parent="0" />
        <mxCell id="8j1FaV0nAHQPOzXAY8Od-11" value="" style="edgeStyle=orthogonalEdgeStyle;rounded=0;orthogonalLoop=1;jettySize=auto;html=1;" edge="1" parent="1" source="8j1FaV0nAHQPOzXAY8Od-2" target="8j1FaV0nAHQPOzXAY8Od-10">
          <mxGeometry relative="1" as="geometry" />
        </mxCell>
        <mxCell id="8j1FaV0nAHQPOzXAY8Od-24" value="検索" style="edgeLabel;html=1;align=center;verticalAlign=middle;resizable=0;points=[];" vertex="1" connectable="0" parent="8j1FaV0nAHQPOzXAY8Od-11">
          <mxGeometry x="-0.0107" y="2" relative="1" as="geometry">
            <mxPoint as="offset" />
          </mxGeometry>
        </mxCell>
        <mxCell id="8j1FaV0nAHQPOzXAY8Od-2" value="Top&lt;br&gt;SSG" style="verticalLabelPosition=bottom;verticalAlign=top;html=1;shadow=0;dashed=0;strokeWidth=1;shape=mxgraph.android.phone2;strokeColor=#c0c0c0;" vertex="1" parent="1">
          <mxGeometry x="110" y="90" width="200" height="390" as="geometry" />
        </mxCell>
        <mxCell id="8j1FaV0nAHQPOzXAY8Od-3" value="&lt;font style=&quot;font-size: 18px;&quot;&gt;ライフポイント&lt;/font&gt;&lt;br&gt;&amp;lt;在庫検索システム&amp;gt;" style="text;html=1;align=center;verticalAlign=middle;resizable=0;points=[];autosize=1;strokeColor=none;fillColor=none;" vertex="1" parent="1">
          <mxGeometry x="135" y="150" width="150" height="50" as="geometry" />
        </mxCell>
        <mxCell id="8j1FaV0nAHQPOzXAY8Od-5" value="キーワード" style="strokeWidth=1;shadow=0;dashed=0;align=center;html=1;shape=mxgraph.mockup.forms.searchBox;strokeColor=#999999;mainText=;strokeColor2=#008cff;fontColor=#666666;fontSize=17;align=left;spacingLeft=3;whiteSpace=wrap;" vertex="1" parent="1">
          <mxGeometry x="140" y="230" width="145" height="30" as="geometry" />
        </mxCell>
        <mxCell id="8j1FaV0nAHQPOzXAY8Od-6" value="取り扱い品目数" style="text;html=1;align=center;verticalAlign=middle;resizable=0;points=[];autosize=1;strokeColor=none;fillColor=none;" vertex="1" parent="1">
          <mxGeometry x="157.5" y="280" width="110" height="30" as="geometry" />
        </mxCell>
        <mxCell id="8j1FaV0nAHQPOzXAY8Od-7" value="金物&amp;nbsp; 100点" style="text;html=1;align=center;verticalAlign=middle;resizable=0;points=[];autosize=1;strokeColor=none;fillColor=none;" vertex="1" parent="1">
          <mxGeometry x="165" y="320" width="90" height="30" as="geometry" />
        </mxCell>
        <mxCell id="8j1FaV0nAHQPOzXAY8Od-8" value="水道資材&amp;nbsp; 100点" style="text;html=1;align=center;verticalAlign=middle;resizable=0;points=[];autosize=1;strokeColor=none;fillColor=none;" vertex="1" parent="1">
          <mxGeometry x="155" y="350" width="110" height="30" as="geometry" />
        </mxCell>
        <mxCell id="8j1FaV0nAHQPOzXAY8Od-9" value="雑貨&amp;nbsp; 100点" style="text;html=1;align=center;verticalAlign=middle;resizable=0;points=[];autosize=1;strokeColor=none;fillColor=none;" vertex="1" parent="1">
          <mxGeometry x="165" y="380" width="90" height="30" as="geometry" />
        </mxCell>
        <mxCell id="8j1FaV0nAHQPOzXAY8Od-26" value="" style="edgeStyle=orthogonalEdgeStyle;rounded=0;orthogonalLoop=1;jettySize=auto;html=1;" edge="1" parent="1" source="8j1FaV0nAHQPOzXAY8Od-10" target="8j1FaV0nAHQPOzXAY8Od-25">
          <mxGeometry relative="1" as="geometry" />
        </mxCell>
        <mxCell id="8j1FaV0nAHQPOzXAY8Od-27" value="商品クリック&lt;br&gt;(新しいタブ)" style="edgeLabel;html=1;align=center;verticalAlign=middle;resizable=0;points=[];" vertex="1" connectable="0" parent="8j1FaV0nAHQPOzXAY8Od-26">
          <mxGeometry x="-0.2107" y="3" relative="1" as="geometry">
            <mxPoint x="15" y="3" as="offset" />
          </mxGeometry>
        </mxCell>
        <mxCell id="8j1FaV0nAHQPOzXAY8Od-10" value="検索結果&lt;br&gt;CSR" style="verticalLabelPosition=bottom;verticalAlign=top;html=1;shadow=0;dashed=0;strokeWidth=1;shape=mxgraph.android.phone2;strokeColor=#c0c0c0;" vertex="1" parent="1">
          <mxGeometry x="390" y="90" width="200" height="390" as="geometry" />
        </mxCell>
        <mxCell id="8j1FaV0nAHQPOzXAY8Od-12" value="ライフポイント - 在庫検索システム -" style="text;html=1;align=left;verticalAlign=middle;resizable=0;points=[];autosize=1;strokeColor=none;fillColor=none;fontSize=10;" vertex="1" parent="1">
          <mxGeometry x="402" y="125" width="190" height="30" as="geometry" />
        </mxCell>
        <mxCell id="8j1FaV0nAHQPOzXAY8Od-13" value="ブルーシート" style="strokeWidth=1;shadow=0;dashed=0;align=center;html=1;shape=mxgraph.mockup.forms.searchBox;strokeColor=#999999;mainText=;strokeColor2=#008cff;fontColor=#666666;fontSize=17;align=left;spacingLeft=3;whiteSpace=wrap;" vertex="1" parent="1">
          <mxGeometry x="417.5" y="160" width="145" height="30" as="geometry" />
        </mxCell>
        <mxCell id="8j1FaV0nAHQPOzXAY8Od-16" value="" style="html=1;verticalLabelPosition=bottom;labelBackgroundColor=#ffffff;verticalAlign=top;shadow=0;dashed=0;strokeWidth=2;shape=mxgraph.ios7.misc.scroll_(vertical);fillColor=#a0a0a0;" vertex="1" parent="1">
          <mxGeometry x="570" y="200" width="6" height="240" as="geometry" />
        </mxCell>
        <mxCell id="8j1FaV0nAHQPOzXAY8Od-17" value="&lt;font style=&quot;font-size: 7px;&quot;&gt;&lt;b style=&quot;font-size: 7px;&quot;&gt;ブルーシート　＃2000　3.6×5.4　＃26000183&amp;nbsp;&lt;/b&gt;&lt;/font&gt;&lt;br style=&quot;font-size: 7px;&quot;&gt;&lt;br style=&quot;font-size: 7px;&quot;&gt;在庫数: 10&lt;br&gt;更新日時: 2023/10/16 21:47" style="html=1;shadow=0;dashed=0;shape=mxgraph.bootstrap.rrect;rSize=5;strokeColor=#DFDFDF;html=1;whiteSpace=wrap;fillColor=#ffffff;fontColor=#000000;verticalAlign=top;align=left;spacing=20;fontSize=7;spacingLeft=30;spacingTop=-10;" vertex="1" parent="1">
          <mxGeometry x="404" y="206.25" width="156" height="73.75" as="geometry" />
        </mxCell>
        <mxCell id="8j1FaV0nAHQPOzXAY8Od-18" value="Image" style="html=1;shadow=0;dashed=0;shape=mxgraph.bootstrap.leftButton;rSize=5;perimeter=none;whiteSpace=wrap;fillColor=#868E96;strokeColor=#DFDFDF;fontColor=#DEE2E6;resizeWidth=1;fontSize=9;" vertex="1" parent="8j1FaV0nAHQPOzXAY8Od-17">
          <mxGeometry width="45.91" height="70" relative="1" as="geometry">
            <mxPoint as="offset" />
          </mxGeometry>
        </mxCell>
        <mxCell id="8j1FaV0nAHQPOzXAY8Od-20" value="&lt;b&gt;ブルーシート　＃2000　10*10&lt;/b&gt;&lt;br style=&quot;font-size: 7px;&quot;&gt;&lt;br style=&quot;font-size: 7px;&quot;&gt;在庫数: 10&lt;br&gt;更新日時: 2023/10/16 21:47" style="html=1;shadow=0;dashed=0;shape=mxgraph.bootstrap.rrect;rSize=5;strokeColor=#DFDFDF;html=1;whiteSpace=wrap;fillColor=#ffffff;fontColor=#000000;verticalAlign=top;align=left;spacing=20;fontSize=7;spacingLeft=30;spacingTop=-10;" vertex="1" parent="1">
          <mxGeometry x="404" y="283.12" width="156" height="73.75" as="geometry" />
        </mxCell>
        <mxCell id="8j1FaV0nAHQPOzXAY8Od-21" value="Image" style="html=1;shadow=0;dashed=0;shape=mxgraph.bootstrap.leftButton;rSize=5;perimeter=none;whiteSpace=wrap;fillColor=#868E96;strokeColor=#DFDFDF;fontColor=#DEE2E6;resizeWidth=1;fontSize=9;" vertex="1" parent="8j1FaV0nAHQPOzXAY8Od-20">
          <mxGeometry width="45.91" height="70" relative="1" as="geometry">
            <mxPoint as="offset" />
          </mxGeometry>
        </mxCell>
        <mxCell id="8j1FaV0nAHQPOzXAY8Od-22" value="&lt;font style=&quot;font-size: 7px;&quot;&gt;&lt;b style=&quot;font-size: 7px;&quot;&gt;ブルーシート　＃2000　3.6×5.4　＃26000183&amp;nbsp;&lt;/b&gt;&lt;/font&gt;&lt;br style=&quot;font-size: 7px;&quot;&gt;&lt;br style=&quot;font-size: 7px;&quot;&gt;在庫数: 10&lt;br&gt;更新日時: 2023/10/16 21:47" style="html=1;shadow=0;dashed=0;shape=mxgraph.bootstrap.rrect;rSize=5;strokeColor=#DFDFDF;html=1;whiteSpace=wrap;fillColor=#ffffff;fontColor=#000000;verticalAlign=top;align=left;spacing=20;fontSize=7;spacingLeft=30;spacingTop=-10;" vertex="1" parent="1">
          <mxGeometry x="404" y="361.13" width="156" height="73.75" as="geometry" />
        </mxCell>
        <mxCell id="8j1FaV0nAHQPOzXAY8Od-23" value="Image" style="html=1;shadow=0;dashed=0;shape=mxgraph.bootstrap.leftButton;rSize=5;perimeter=none;whiteSpace=wrap;fillColor=#868E96;strokeColor=#DFDFDF;fontColor=#DEE2E6;resizeWidth=1;fontSize=9;" vertex="1" parent="8j1FaV0nAHQPOzXAY8Od-22">
          <mxGeometry width="45.91" height="70" relative="1" as="geometry">
            <mxPoint as="offset" />
          </mxGeometry>
        </mxCell>
        <mxCell id="8j1FaV0nAHQPOzXAY8Od-25" value="商品ページ詳細" style="verticalLabelPosition=bottom;verticalAlign=top;html=1;shadow=0;dashed=0;strokeWidth=1;shape=mxgraph.android.phone2;strokeColor=#c0c0c0;" vertex="1" parent="1">
          <mxGeometry x="720" y="90" width="200" height="390" as="geometry" />
        </mxCell>
        <mxCell id="8j1FaV0nAHQPOzXAY8Od-28" value="ライフポイント - 在庫検索システム -" style="text;html=1;align=left;verticalAlign=middle;resizable=0;points=[];autosize=1;strokeColor=none;fillColor=none;fontSize=10;" vertex="1" parent="1">
          <mxGeometry x="725" y="125" width="190" height="30" as="geometry" />
        </mxCell>
        <mxCell id="8j1FaV0nAHQPOzXAY8Od-29" value="&lt;b style=&quot;border-color: var(--border-color); font-size: 11px;&quot;&gt;ブルーシート&lt;br&gt;&lt;div style=&quot;&quot;&gt;&lt;b style=&quot;background-color: initial; border-color: var(--border-color);&quot;&gt;＃2000　&lt;/b&gt;&lt;/div&gt;3.6×5.4&lt;br&gt;＃26000183&amp;nbsp;&lt;/b&gt;" style="text;html=1;align=left;verticalAlign=middle;resizable=0;points=[];autosize=1;strokeColor=none;fillColor=none;fontSize=11;" vertex="1" parent="1">
          <mxGeometry x="817" y="200" width="90" height="70" as="geometry" />
        </mxCell>
        <mxCell id="8j1FaV0nAHQPOzXAY8Od-30" value="Image" style="html=1;shadow=0;dashed=0;shape=mxgraph.bootstrap.leftButton;rSize=5;perimeter=none;whiteSpace=wrap;fillColor=#868E96;strokeColor=#DFDFDF;fontColor=#DEE2E6;resizeWidth=1;fontSize=9;" vertex="1" parent="1">
          <mxGeometry x="740" y="200" width="60" height="70" as="geometry" />
        </mxCell>
        <mxCell id="8j1FaV0nAHQPOzXAY8Od-31" value="在庫数: 10" style="text;html=1;align=left;verticalAlign=middle;resizable=0;points=[];autosize=1;strokeColor=none;fillColor=none;" vertex="1" parent="1">
          <mxGeometry x="740" y="280" width="80" height="30" as="geometry" />
        </mxCell>
        <mxCell id="8j1FaV0nAHQPOzXAY8Od-32" value="ブルーシート" style="strokeWidth=1;shadow=0;dashed=0;align=center;html=1;shape=mxgraph.mockup.forms.searchBox;strokeColor=#999999;mainText=;strokeColor2=#008cff;fontColor=#666666;fontSize=17;align=left;spacingLeft=3;whiteSpace=wrap;" vertex="1" parent="1">
          <mxGeometry x="740" y="160" width="145" height="30" as="geometry" />
        </mxCell>
        <mxCell id="8j1FaV0nAHQPOzXAY8Od-33" value="更新日時: 2023/10/16 21:47" style="text;html=1;align=left;verticalAlign=middle;resizable=0;points=[];autosize=1;strokeColor=none;fillColor=none;" vertex="1" parent="1">
          <mxGeometry x="740" y="305" width="170" height="30" as="geometry" />
        </mxCell>
        <mxCell id="8j1FaV0nAHQPOzXAY8Od-34" value="お問い合わせはこちら&lt;br&gt;&lt;font style=&quot;font-size: 7px;&quot;&gt;最新の在庫状況などお気軽にお問合せください&lt;br&gt;&lt;/font&gt;&lt;font size=&quot;1&quot;&gt;TEL: xxx - xxx -xxx&lt;br&gt;&lt;/font&gt;mail: xxx@example.com&lt;br&gt;LINE公式アカウント" style="rounded=0;whiteSpace=wrap;html=1;" vertex="1" parent="1">
          <mxGeometry x="740" y="340" width="160" height="90" as="geometry" />
        </mxCell>
      </root>
    </mxGraphModel>
  </diagram>
</mxfile>
